<mxfile host="app.diagrams.net" modified="2024-01-05T06:55:34.010Z" agent="Mozilla/5.0 (Windows NT 10.0; Win64; x64) AppleWebKit/537.36 (KHTML, like Gecko) Chrome/120.0.0.0 Safari/537.36" etag="QiBC4JmLeLcKCsC1dHim" version="22.1.16" type="github">
  <diagram name="第 1 页" id="AM1pOyDXr0xeCYtkoIV7">
    <mxGraphModel dx="2261" dy="746" grid="1" gridSize="10" guides="1" tooltips="1" connect="1" arrows="1" fold="1" page="1" pageScale="1" pageWidth="827" pageHeight="1169" math="0" shadow="0">
      <root>
        <mxCell id="0" />
        <mxCell id="1" parent="0" />
        <mxCell id="ZWByFL8Ro4nNfFt7e3Mq-237" style="edgeStyle=orthogonalEdgeStyle;rounded=0;orthogonalLoop=1;jettySize=auto;html=1;exitX=0.5;exitY=1;exitDx=0;exitDy=0;entryX=0.5;entryY=0;entryDx=0;entryDy=0;endArrow=none;endFill=0;" edge="1" parent="1" source="ZWByFL8Ro4nNfFt7e3Mq-28" target="ZWByFL8Ro4nNfFt7e3Mq-206">
          <mxGeometry relative="1" as="geometry" />
        </mxCell>
        <mxCell id="ZWByFL8Ro4nNfFt7e3Mq-2" value="recorder&lt;br&gt;(IoT device)" style="rounded=1;whiteSpace=wrap;html=1;" vertex="1" parent="1">
          <mxGeometry x="140" y="120" width="120" height="60" as="geometry" />
        </mxCell>
        <mxCell id="ZWByFL8Ro4nNfFt7e3Mq-3" value="iottalk&lt;br&gt;(IoT platform)" style="rounded=1;whiteSpace=wrap;html=1;" vertex="1" parent="1">
          <mxGeometry x="340" y="120" width="120" height="60" as="geometry" />
        </mxCell>
        <mxCell id="ZWByFL8Ro4nNfFt7e3Mq-5" value="linebot&lt;br&gt;(IoT device)" style="rounded=1;whiteSpace=wrap;html=1;" vertex="1" parent="1">
          <mxGeometry x="540" y="120" width="120" height="60" as="geometry" />
        </mxCell>
        <mxCell id="ZWByFL8Ro4nNfFt7e3Mq-7" value="parent&#39;s line" style="rounded=1;whiteSpace=wrap;html=1;" vertex="1" parent="1">
          <mxGeometry x="740" y="120" width="120" height="60" as="geometry" />
        </mxCell>
        <mxCell id="ZWByFL8Ro4nNfFt7e3Mq-9" value="" style="endArrow=none;html=1;rounded=0;entryX=0.5;entryY=1;entryDx=0;entryDy=0;" edge="1" parent="1" source="ZWByFL8Ro4nNfFt7e3Mq-144" target="ZWByFL8Ro4nNfFt7e3Mq-3">
          <mxGeometry width="50" height="50" relative="1" as="geometry">
            <mxPoint x="400" y="360" as="sourcePoint" />
            <mxPoint x="410" y="190" as="targetPoint" />
          </mxGeometry>
        </mxCell>
        <mxCell id="ZWByFL8Ro4nNfFt7e3Mq-12" value="" style="endArrow=none;html=1;rounded=0;entryX=0.5;entryY=1;entryDx=0;entryDy=0;" edge="1" parent="1" source="ZWByFL8Ro4nNfFt7e3Mq-14">
          <mxGeometry width="50" height="50" relative="1" as="geometry">
            <mxPoint x="200" y="360" as="sourcePoint" />
            <mxPoint x="200" y="180" as="targetPoint" />
          </mxGeometry>
        </mxCell>
        <mxCell id="ZWByFL8Ro4nNfFt7e3Mq-32" value="" style="edgeStyle=orthogonalEdgeStyle;rounded=0;orthogonalLoop=1;jettySize=auto;html=1;" edge="1" parent="1" source="ZWByFL8Ro4nNfFt7e3Mq-14" target="ZWByFL8Ro4nNfFt7e3Mq-31">
          <mxGeometry relative="1" as="geometry" />
        </mxCell>
        <mxCell id="ZWByFL8Ro4nNfFt7e3Mq-14" value="" style="ellipse;whiteSpace=wrap;html=1;aspect=fixed;" vertex="1" parent="1">
          <mxGeometry x="195" y="309" width="10" height="10" as="geometry" />
        </mxCell>
        <mxCell id="ZWByFL8Ro4nNfFt7e3Mq-17" value="" style="endArrow=none;html=1;rounded=0;entryX=0.5;entryY=1;entryDx=0;entryDy=0;" edge="1" parent="1" source="ZWByFL8Ro4nNfFt7e3Mq-124" target="ZWByFL8Ro4nNfFt7e3Mq-15">
          <mxGeometry width="50" height="50" relative="1" as="geometry">
            <mxPoint x="400" y="398" as="sourcePoint" />
            <mxPoint x="400" y="298" as="targetPoint" />
          </mxGeometry>
        </mxCell>
        <mxCell id="ZWByFL8Ro4nNfFt7e3Mq-183" value="" style="edgeStyle=orthogonalEdgeStyle;rounded=0;orthogonalLoop=1;jettySize=auto;html=1;" edge="1" parent="1" source="ZWByFL8Ro4nNfFt7e3Mq-15" target="ZWByFL8Ro4nNfFt7e3Mq-182">
          <mxGeometry relative="1" as="geometry" />
        </mxCell>
        <mxCell id="ZWByFL8Ro4nNfFt7e3Mq-15" value="" style="ellipse;whiteSpace=wrap;html=1;aspect=fixed;" vertex="1" parent="1">
          <mxGeometry x="395" y="869" width="10" height="10" as="geometry" />
        </mxCell>
        <mxCell id="ZWByFL8Ro4nNfFt7e3Mq-18" value="app server" style="rounded=1;whiteSpace=wrap;html=1;" vertex="1" parent="1">
          <mxGeometry x="-60" y="120" width="120" height="60" as="geometry" />
        </mxCell>
        <mxCell id="ZWByFL8Ro4nNfFt7e3Mq-22" value="" style="endArrow=none;html=1;rounded=0;entryX=0.5;entryY=1;entryDx=0;entryDy=0;" edge="1" parent="1" source="ZWByFL8Ro4nNfFt7e3Mq-201">
          <mxGeometry width="50" height="50" relative="1" as="geometry">
            <mxPoint y="290" as="sourcePoint" />
            <mxPoint y="180" as="targetPoint" />
          </mxGeometry>
        </mxCell>
        <mxCell id="ZWByFL8Ro4nNfFt7e3Mq-23" value="" style="endArrow=none;html=1;rounded=0;entryX=0.5;entryY=1;entryDx=0;entryDy=0;" edge="1" parent="1" target="ZWByFL8Ro4nNfFt7e3Mq-24" source="ZWByFL8Ro4nNfFt7e3Mq-207">
          <mxGeometry width="50" height="50" relative="1" as="geometry">
            <mxPoint y="589" as="sourcePoint" />
            <mxPoint y="259" as="targetPoint" />
          </mxGeometry>
        </mxCell>
        <mxCell id="ZWByFL8Ro4nNfFt7e3Mq-38" value="" style="edgeStyle=orthogonalEdgeStyle;rounded=0;orthogonalLoop=1;jettySize=auto;html=1;" edge="1" parent="1" source="ZWByFL8Ro4nNfFt7e3Mq-24" target="ZWByFL8Ro4nNfFt7e3Mq-37">
          <mxGeometry relative="1" as="geometry" />
        </mxCell>
        <mxCell id="ZWByFL8Ro4nNfFt7e3Mq-25" value="web" style="rounded=1;whiteSpace=wrap;html=1;" vertex="1" parent="1">
          <mxGeometry x="-260" y="120" width="120" height="60" as="geometry" />
        </mxCell>
        <mxCell id="ZWByFL8Ro4nNfFt7e3Mq-27" value="" style="endArrow=none;html=1;rounded=0;entryX=0.5;entryY=1;entryDx=0;entryDy=0;" edge="1" parent="1" source="ZWByFL8Ro4nNfFt7e3Mq-28">
          <mxGeometry width="50" height="50" relative="1" as="geometry">
            <mxPoint x="-200" y="360" as="sourcePoint" />
            <mxPoint x="-200.24" y="180" as="targetPoint" />
          </mxGeometry>
        </mxCell>
        <mxCell id="ZWByFL8Ro4nNfFt7e3Mq-33" value="" style="endArrow=none;html=1;rounded=0;entryX=0.5;entryY=1;entryDx=0;entryDy=0;" edge="1" parent="1" source="ZWByFL8Ro4nNfFt7e3Mq-24" target="ZWByFL8Ro4nNfFt7e3Mq-31">
          <mxGeometry width="50" height="50" relative="1" as="geometry">
            <mxPoint y="369" as="sourcePoint" />
            <mxPoint y="259" as="targetPoint" />
          </mxGeometry>
        </mxCell>
        <mxCell id="ZWByFL8Ro4nNfFt7e3Mq-43" style="edgeStyle=orthogonalEdgeStyle;rounded=0;orthogonalLoop=1;jettySize=auto;html=1;exitX=0;exitY=1;exitDx=0;exitDy=0;" edge="1" parent="1" source="ZWByFL8Ro4nNfFt7e3Mq-31">
          <mxGeometry relative="1" as="geometry">
            <mxPoint y="309" as="targetPoint" />
          </mxGeometry>
        </mxCell>
        <mxCell id="ZWByFL8Ro4nNfFt7e3Mq-31" value="" style="ellipse;whiteSpace=wrap;html=1;aspect=fixed;" vertex="1" parent="1">
          <mxGeometry x="-5" y="309" width="10" height="10" as="geometry" />
        </mxCell>
        <mxCell id="ZWByFL8Ro4nNfFt7e3Mq-36" value="request&amp;nbsp;/get_record_status" style="rounded=0;whiteSpace=wrap;html=1;fillColor=#e1d5e7;strokeColor=#9673a6;fontFamily=Comic Sans MS;fontSize=10;" vertex="1" parent="1">
          <mxGeometry x="30" y="289" width="150" height="20" as="geometry" />
        </mxCell>
        <mxCell id="ZWByFL8Ro4nNfFt7e3Mq-41" value="" style="rounded=0;orthogonalLoop=1;jettySize=auto;html=1;endArrow=none;endFill=0;" edge="1" parent="1" source="ZWByFL8Ro4nNfFt7e3Mq-37" target="ZWByFL8Ro4nNfFt7e3Mq-40">
          <mxGeometry relative="1" as="geometry" />
        </mxCell>
        <mxCell id="ZWByFL8Ro4nNfFt7e3Mq-47" value="" style="edgeStyle=orthogonalEdgeStyle;rounded=0;orthogonalLoop=1;jettySize=auto;html=1;" edge="1" parent="1" source="ZWByFL8Ro4nNfFt7e3Mq-37" target="ZWByFL8Ro4nNfFt7e3Mq-40">
          <mxGeometry relative="1" as="geometry" />
        </mxCell>
        <mxCell id="ZWByFL8Ro4nNfFt7e3Mq-48" value="&amp;nbsp;True&amp;nbsp;" style="edgeLabel;html=1;align=center;verticalAlign=middle;resizable=0;points=[];" vertex="1" connectable="0" parent="ZWByFL8Ro4nNfFt7e3Mq-47">
          <mxGeometry x="0.2857" y="-1" relative="1" as="geometry">
            <mxPoint x="1" y="-14" as="offset" />
          </mxGeometry>
        </mxCell>
        <mxCell id="ZWByFL8Ro4nNfFt7e3Mq-173" style="edgeStyle=orthogonalEdgeStyle;rounded=0;orthogonalLoop=1;jettySize=auto;html=1;entryX=0.5;entryY=1;entryDx=0;entryDy=0;endArrow=none;endFill=0;" edge="1" parent="1" source="ZWByFL8Ro4nNfFt7e3Mq-37" target="ZWByFL8Ro4nNfFt7e3Mq-14">
          <mxGeometry relative="1" as="geometry" />
        </mxCell>
        <mxCell id="ZWByFL8Ro4nNfFt7e3Mq-175" value="" style="edgeStyle=orthogonalEdgeStyle;rounded=0;orthogonalLoop=1;jettySize=auto;html=1;" edge="1" parent="1" source="ZWByFL8Ro4nNfFt7e3Mq-37" target="ZWByFL8Ro4nNfFt7e3Mq-174">
          <mxGeometry relative="1" as="geometry" />
        </mxCell>
        <mxCell id="ZWByFL8Ro4nNfFt7e3Mq-177" value="&amp;nbsp;False&amp;nbsp;" style="edgeLabel;html=1;align=center;verticalAlign=middle;resizable=0;points=[];" vertex="1" connectable="0" parent="ZWByFL8Ro4nNfFt7e3Mq-175">
          <mxGeometry x="-0.0737" relative="1" as="geometry">
            <mxPoint as="offset" />
          </mxGeometry>
        </mxCell>
        <mxCell id="ZWByFL8Ro4nNfFt7e3Mq-37" value="" style="ellipse;whiteSpace=wrap;html=1;aspect=fixed;" vertex="1" parent="1">
          <mxGeometry x="195" y="349" width="10" height="10" as="geometry" />
        </mxCell>
        <mxCell id="ZWByFL8Ro4nNfFt7e3Mq-50" value="" style="edgeStyle=orthogonalEdgeStyle;rounded=0;orthogonalLoop=1;jettySize=auto;html=1;" edge="1" parent="1" source="ZWByFL8Ro4nNfFt7e3Mq-40" target="ZWByFL8Ro4nNfFt7e3Mq-49">
          <mxGeometry relative="1" as="geometry" />
        </mxCell>
        <mxCell id="ZWByFL8Ro4nNfFt7e3Mq-58" value="&amp;nbsp;duration &amp;gt; 30s&amp;nbsp;" style="edgeLabel;html=1;align=center;verticalAlign=middle;resizable=0;points=[];" vertex="1" connectable="0" parent="ZWByFL8Ro4nNfFt7e3Mq-50">
          <mxGeometry x="-0.0179" relative="1" as="geometry">
            <mxPoint as="offset" />
          </mxGeometry>
        </mxCell>
        <mxCell id="ZWByFL8Ro4nNfFt7e3Mq-54" value="" style="edgeStyle=orthogonalEdgeStyle;rounded=0;orthogonalLoop=1;jettySize=auto;html=1;" edge="1" parent="1" source="ZWByFL8Ro4nNfFt7e3Mq-40" target="ZWByFL8Ro4nNfFt7e3Mq-53">
          <mxGeometry relative="1" as="geometry" />
        </mxCell>
        <mxCell id="ZWByFL8Ro4nNfFt7e3Mq-56" value="&amp;nbsp;duration &amp;lt; 30s&amp;nbsp;" style="edgeLabel;html=1;align=center;verticalAlign=middle;resizable=0;points=[];" vertex="1" connectable="0" parent="ZWByFL8Ro4nNfFt7e3Mq-54">
          <mxGeometry x="0.3465" relative="1" as="geometry">
            <mxPoint x="-33" as="offset" />
          </mxGeometry>
        </mxCell>
        <mxCell id="ZWByFL8Ro4nNfFt7e3Mq-40" value="" style="ellipse;whiteSpace=wrap;html=1;aspect=fixed;" vertex="1" parent="1">
          <mxGeometry x="195" y="429" width="10" height="10" as="geometry" />
        </mxCell>
        <mxCell id="ZWByFL8Ro4nNfFt7e3Mq-44" value="" style="endArrow=none;html=1;rounded=0;entryX=0.5;entryY=1;entryDx=0;entryDy=0;" edge="1" parent="1" target="ZWByFL8Ro4nNfFt7e3Mq-24">
          <mxGeometry width="50" height="50" relative="1" as="geometry">
            <mxPoint y="369" as="sourcePoint" />
            <mxPoint y="319" as="targetPoint" />
          </mxGeometry>
        </mxCell>
        <mxCell id="ZWByFL8Ro4nNfFt7e3Mq-24" value="" style="ellipse;whiteSpace=wrap;html=1;aspect=fixed;" vertex="1" parent="1">
          <mxGeometry x="-5" y="349" width="10" height="10" as="geometry" />
        </mxCell>
        <mxCell id="ZWByFL8Ro4nNfFt7e3Mq-45" value="response True/False" style="rounded=0;whiteSpace=wrap;html=1;fillColor=#e1d5e7;strokeColor=#9673a6;fontFamily=Comic Sans MS;fontSize=10;" vertex="1" parent="1">
          <mxGeometry x="30" y="329" width="150" height="20" as="geometry" />
        </mxCell>
        <mxCell id="ZWByFL8Ro4nNfFt7e3Mq-60" value="" style="edgeStyle=orthogonalEdgeStyle;rounded=0;orthogonalLoop=1;jettySize=auto;html=1;endArrow=none;endFill=0;" edge="1" parent="1" source="ZWByFL8Ro4nNfFt7e3Mq-106">
          <mxGeometry relative="1" as="geometry">
            <mxPoint x="200" y="818" as="targetPoint" />
          </mxGeometry>
        </mxCell>
        <mxCell id="ZWByFL8Ro4nNfFt7e3Mq-62" value="" style="edgeStyle=orthogonalEdgeStyle;rounded=0;orthogonalLoop=1;jettySize=auto;html=1;" edge="1" parent="1" source="ZWByFL8Ro4nNfFt7e3Mq-49" target="ZWByFL8Ro4nNfFt7e3Mq-61">
          <mxGeometry relative="1" as="geometry" />
        </mxCell>
        <mxCell id="ZWByFL8Ro4nNfFt7e3Mq-49" value="" style="ellipse;whiteSpace=wrap;html=1;aspect=fixed;" vertex="1" parent="1">
          <mxGeometry x="195" y="509" width="10" height="10" as="geometry" />
        </mxCell>
        <mxCell id="ZWByFL8Ro4nNfFt7e3Mq-55" value="check time duration" style="rounded=0;whiteSpace=wrap;html=1;fillColor=#fff2cc;strokeColor=#d6b656;fontFamily=Comic Sans MS;fontSize=10;" vertex="1" parent="1">
          <mxGeometry x="80" y="419" width="100" height="20" as="geometry" />
        </mxCell>
        <mxCell id="ZWByFL8Ro4nNfFt7e3Mq-63" value="" style="endArrow=none;html=1;rounded=0;entryX=0.5;entryY=1;entryDx=0;entryDy=0;" edge="1" parent="1" source="ZWByFL8Ro4nNfFt7e3Mq-137" target="ZWByFL8Ro4nNfFt7e3Mq-61">
          <mxGeometry width="50" height="50" relative="1" as="geometry">
            <mxPoint y="749" as="sourcePoint" />
            <mxPoint y="359" as="targetPoint" />
          </mxGeometry>
        </mxCell>
        <mxCell id="ZWByFL8Ro4nNfFt7e3Mq-61" value="" style="ellipse;whiteSpace=wrap;html=1;aspect=fixed;" vertex="1" parent="1">
          <mxGeometry x="-5" y="509" width="10" height="10" as="geometry" />
        </mxCell>
        <mxCell id="ZWByFL8Ro4nNfFt7e3Mq-65" value="request&amp;nbsp;/predict_recorder" style="rounded=0;whiteSpace=wrap;html=1;fillColor=#e1d5e7;strokeColor=#9673a6;fontFamily=Comic Sans MS;fontSize=10;" vertex="1" parent="1">
          <mxGeometry x="30" y="489" width="150" height="20" as="geometry" />
        </mxCell>
        <mxCell id="ZWByFL8Ro4nNfFt7e3Mq-76" value="" style="edgeStyle=orthogonalEdgeStyle;rounded=0;orthogonalLoop=1;jettySize=auto;html=1;" edge="1" parent="1" source="ZWByFL8Ro4nNfFt7e3Mq-67" target="ZWByFL8Ro4nNfFt7e3Mq-75">
          <mxGeometry relative="1" as="geometry" />
        </mxCell>
        <mxCell id="ZWByFL8Ro4nNfFt7e3Mq-67" value="" style="ellipse;whiteSpace=wrap;html=1;aspect=fixed;" vertex="1" parent="1">
          <mxGeometry x="-5" y="548" width="10" height="10" as="geometry" />
        </mxCell>
        <mxCell id="ZWByFL8Ro4nNfFt7e3Mq-70" value="" style="edgeStyle=orthogonalEdgeStyle;rounded=0;orthogonalLoop=1;jettySize=auto;html=1;endArrow=none;endFill=0;" edge="1" parent="1" source="ZWByFL8Ro4nNfFt7e3Mq-49">
          <mxGeometry relative="1" as="geometry">
            <mxPoint x="200" y="479" as="sourcePoint" />
            <mxPoint x="200" y="599" as="targetPoint" />
          </mxGeometry>
        </mxCell>
        <mxCell id="ZWByFL8Ro4nNfFt7e3Mq-72" value="model" style="whiteSpace=wrap;html=1;rounded=1;" vertex="1" parent="1">
          <mxGeometry x="-460" y="120" width="120" height="60" as="geometry" />
        </mxCell>
        <mxCell id="ZWByFL8Ro4nNfFt7e3Mq-74" value="" style="endArrow=none;html=1;rounded=0;entryX=0.5;entryY=1;entryDx=0;entryDy=0;" edge="1" parent="1" source="ZWByFL8Ro4nNfFt7e3Mq-75" target="ZWByFL8Ro4nNfFt7e3Mq-72">
          <mxGeometry width="50" height="50" relative="1" as="geometry">
            <mxPoint x="-400" y="480" as="sourcePoint" />
            <mxPoint x="-360" y="180" as="targetPoint" />
          </mxGeometry>
        </mxCell>
        <mxCell id="ZWByFL8Ro4nNfFt7e3Mq-238" style="edgeStyle=orthogonalEdgeStyle;rounded=0;orthogonalLoop=1;jettySize=auto;html=1;entryX=0.5;entryY=0;entryDx=0;entryDy=0;endArrow=none;endFill=0;" edge="1" parent="1" source="ZWByFL8Ro4nNfFt7e3Mq-75" target="ZWByFL8Ro4nNfFt7e3Mq-80">
          <mxGeometry relative="1" as="geometry" />
        </mxCell>
        <mxCell id="ZWByFL8Ro4nNfFt7e3Mq-75" value="" style="ellipse;whiteSpace=wrap;html=1;aspect=fixed;" vertex="1" parent="1">
          <mxGeometry x="-405" y="548" width="10" height="10" as="geometry" />
        </mxCell>
        <mxCell id="ZWByFL8Ro4nNfFt7e3Mq-79" value="run model predict" style="rounded=0;whiteSpace=wrap;html=1;fillColor=#fff2cc;strokeColor=#d6b656;fontFamily=Comic Sans MS;fontSize=10;" vertex="1" parent="1">
          <mxGeometry x="-130" y="528" width="100" height="20" as="geometry" />
        </mxCell>
        <mxCell id="ZWByFL8Ro4nNfFt7e3Mq-138" style="edgeStyle=orthogonalEdgeStyle;rounded=0;orthogonalLoop=1;jettySize=auto;html=1;entryX=0;entryY=0.5;entryDx=0;entryDy=0;" edge="1" parent="1" source="ZWByFL8Ro4nNfFt7e3Mq-80" target="ZWByFL8Ro4nNfFt7e3Mq-137">
          <mxGeometry relative="1" as="geometry" />
        </mxCell>
        <mxCell id="ZWByFL8Ro4nNfFt7e3Mq-80" value="" style="ellipse;whiteSpace=wrap;html=1;aspect=fixed;" vertex="1" parent="1">
          <mxGeometry x="-405" y="588" width="10" height="10" as="geometry" />
        </mxCell>
        <mxCell id="ZWByFL8Ro4nNfFt7e3Mq-85" value="get record" style="rounded=0;whiteSpace=wrap;html=1;fillColor=#f8cecc;strokeColor=#b85450;fontFamily=Comic Sans MS;fontSize=10;" vertex="1" parent="1">
          <mxGeometry x="-367.5" y="568" width="100" height="20" as="geometry" />
        </mxCell>
        <mxCell id="ZWByFL8Ro4nNfFt7e3Mq-89" value="return record" style="rounded=0;whiteSpace=wrap;html=1;fillColor=#f8cecc;strokeColor=#b85450;fontFamily=Comic Sans MS;fontSize=10;" vertex="1" parent="1">
          <mxGeometry x="-110" y="608" width="100" height="20" as="geometry" />
        </mxCell>
        <mxCell id="ZWByFL8Ro4nNfFt7e3Mq-93" value="" style="edgeStyle=orthogonalEdgeStyle;rounded=0;orthogonalLoop=1;jettySize=auto;html=1;" edge="1" parent="1" source="ZWByFL8Ro4nNfFt7e3Mq-91" target="ZWByFL8Ro4nNfFt7e3Mq-92">
          <mxGeometry relative="1" as="geometry" />
        </mxCell>
        <mxCell id="ZWByFL8Ro4nNfFt7e3Mq-91" value="" style="ellipse;whiteSpace=wrap;html=1;aspect=fixed;" vertex="1" parent="1">
          <mxGeometry x="-405" y="668" width="10" height="10" as="geometry" />
        </mxCell>
        <mxCell id="ZWByFL8Ro4nNfFt7e3Mq-94" value="" style="endArrow=none;html=1;rounded=0;entryX=0.5;entryY=1;entryDx=0;entryDy=0;" edge="1" parent="1" source="ZWByFL8Ro4nNfFt7e3Mq-110" target="ZWByFL8Ro4nNfFt7e3Mq-64">
          <mxGeometry width="50" height="50" relative="1" as="geometry">
            <mxPoint y="788" as="sourcePoint" />
            <mxPoint y="518" as="targetPoint" />
          </mxGeometry>
        </mxCell>
        <mxCell id="ZWByFL8Ro4nNfFt7e3Mq-99" value="" style="edgeStyle=orthogonalEdgeStyle;rounded=0;orthogonalLoop=1;jettySize=auto;html=1;" edge="1" parent="1" source="ZWByFL8Ro4nNfFt7e3Mq-64" target="ZWByFL8Ro4nNfFt7e3Mq-98">
          <mxGeometry relative="1" as="geometry" />
        </mxCell>
        <mxCell id="ZWByFL8Ro4nNfFt7e3Mq-64" value="" style="ellipse;whiteSpace=wrap;html=1;aspect=fixed;" vertex="1" parent="1">
          <mxGeometry x="-5" y="708" width="10" height="10" as="geometry" />
        </mxCell>
        <mxCell id="ZWByFL8Ro4nNfFt7e3Mq-96" value="" style="endArrow=none;html=1;rounded=0;entryX=0.5;entryY=1;entryDx=0;entryDy=0;" edge="1" parent="1" source="ZWByFL8Ro4nNfFt7e3Mq-64" target="ZWByFL8Ro4nNfFt7e3Mq-92">
          <mxGeometry width="50" height="50" relative="1" as="geometry">
            <mxPoint y="718" as="sourcePoint" />
            <mxPoint y="518" as="targetPoint" />
          </mxGeometry>
        </mxCell>
        <mxCell id="ZWByFL8Ro4nNfFt7e3Mq-92" value="" style="ellipse;whiteSpace=wrap;html=1;aspect=fixed;" vertex="1" parent="1">
          <mxGeometry x="-5" y="668" width="10" height="10" as="geometry" />
        </mxCell>
        <mxCell id="ZWByFL8Ro4nNfFt7e3Mq-97" value="generate model predict" style="rounded=0;whiteSpace=wrap;html=1;fillColor=#fff2cc;strokeColor=#d6b656;fontFamily=Comic Sans MS;fontSize=10;" vertex="1" parent="1">
          <mxGeometry x="-150" y="648" width="120" height="20" as="geometry" />
        </mxCell>
        <mxCell id="ZWByFL8Ro4nNfFt7e3Mq-107" value="" style="edgeStyle=orthogonalEdgeStyle;rounded=0;orthogonalLoop=1;jettySize=auto;html=1;" edge="1" parent="1" source="ZWByFL8Ro4nNfFt7e3Mq-98" target="ZWByFL8Ro4nNfFt7e3Mq-106">
          <mxGeometry relative="1" as="geometry" />
        </mxCell>
        <mxCell id="ZWByFL8Ro4nNfFt7e3Mq-102" value="response True/False" style="rounded=0;whiteSpace=wrap;html=1;fillColor=#e1d5e7;strokeColor=#9673a6;fontFamily=Comic Sans MS;fontSize=10;" vertex="1" parent="1">
          <mxGeometry x="30" y="685" width="150" height="20" as="geometry" />
        </mxCell>
        <mxCell id="ZWByFL8Ro4nNfFt7e3Mq-86" value="" style="ellipse;whiteSpace=wrap;html=1;aspect=fixed;" vertex="1" parent="1">
          <mxGeometry x="-405" y="628" width="10" height="10" as="geometry" />
        </mxCell>
        <mxCell id="ZWByFL8Ro4nNfFt7e3Mq-108" value="" style="edgeStyle=orthogonalEdgeStyle;rounded=0;orthogonalLoop=1;jettySize=auto;html=1;endArrow=none;endFill=0;" edge="1" parent="1" target="ZWByFL8Ro4nNfFt7e3Mq-106">
          <mxGeometry relative="1" as="geometry">
            <mxPoint x="200" y="598" as="sourcePoint" />
            <mxPoint x="200" y="818" as="targetPoint" />
          </mxGeometry>
        </mxCell>
        <mxCell id="ZWByFL8Ro4nNfFt7e3Mq-109" value="&amp;nbsp;True&amp;nbsp;" style="edgeLabel;html=1;align=center;verticalAlign=middle;resizable=0;points=[];" vertex="1" connectable="0" parent="ZWByFL8Ro4nNfFt7e3Mq-108">
          <mxGeometry x="0.7175" relative="1" as="geometry">
            <mxPoint as="offset" />
          </mxGeometry>
        </mxCell>
        <mxCell id="ZWByFL8Ro4nNfFt7e3Mq-111" value="" style="edgeStyle=orthogonalEdgeStyle;rounded=0;orthogonalLoop=1;jettySize=auto;html=1;" edge="1" parent="1" source="ZWByFL8Ro4nNfFt7e3Mq-106" target="ZWByFL8Ro4nNfFt7e3Mq-110">
          <mxGeometry relative="1" as="geometry" />
        </mxCell>
        <mxCell id="ZWByFL8Ro4nNfFt7e3Mq-106" value="" style="ellipse;whiteSpace=wrap;html=1;aspect=fixed;" vertex="1" parent="1">
          <mxGeometry x="195" y="748" width="10" height="10" as="geometry" />
        </mxCell>
        <mxCell id="ZWByFL8Ro4nNfFt7e3Mq-163" value="" style="edgeStyle=orthogonalEdgeStyle;rounded=0;orthogonalLoop=1;jettySize=auto;html=1;" edge="1" parent="1" source="ZWByFL8Ro4nNfFt7e3Mq-98" target="ZWByFL8Ro4nNfFt7e3Mq-162">
          <mxGeometry relative="1" as="geometry" />
        </mxCell>
        <mxCell id="ZWByFL8Ro4nNfFt7e3Mq-165" value="&amp;nbsp;False&amp;nbsp;" style="edgeLabel;html=1;align=center;verticalAlign=middle;resizable=0;points=[];" vertex="1" connectable="0" parent="ZWByFL8Ro4nNfFt7e3Mq-163">
          <mxGeometry x="-0.0298" y="1" relative="1" as="geometry">
            <mxPoint as="offset" />
          </mxGeometry>
        </mxCell>
        <mxCell id="ZWByFL8Ro4nNfFt7e3Mq-98" value="" style="ellipse;whiteSpace=wrap;html=1;aspect=fixed;" vertex="1" parent="1">
          <mxGeometry x="195" y="708" width="10" height="10" as="geometry" />
        </mxCell>
        <mxCell id="ZWByFL8Ro4nNfFt7e3Mq-112" value="" style="endArrow=none;html=1;rounded=0;entryX=0.5;entryY=1;entryDx=0;entryDy=0;" edge="1" parent="1" target="ZWByFL8Ro4nNfFt7e3Mq-110">
          <mxGeometry width="50" height="50" relative="1" as="geometry">
            <mxPoint y="788" as="sourcePoint" />
            <mxPoint y="718" as="targetPoint" />
          </mxGeometry>
        </mxCell>
        <mxCell id="ZWByFL8Ro4nNfFt7e3Mq-115" value="" style="edgeStyle=orthogonalEdgeStyle;rounded=0;orthogonalLoop=1;jettySize=auto;html=1;" edge="1" parent="1" source="ZWByFL8Ro4nNfFt7e3Mq-110" target="ZWByFL8Ro4nNfFt7e3Mq-114">
          <mxGeometry relative="1" as="geometry" />
        </mxCell>
        <mxCell id="ZWByFL8Ro4nNfFt7e3Mq-110" value="" style="ellipse;whiteSpace=wrap;html=1;aspect=fixed;" vertex="1" parent="1">
          <mxGeometry x="-5" y="748" width="10" height="10" as="geometry" />
        </mxCell>
        <mxCell id="ZWByFL8Ro4nNfFt7e3Mq-113" value="request&amp;nbsp;/get_music" style="rounded=0;whiteSpace=wrap;html=1;fillColor=#e1d5e7;strokeColor=#9673a6;fontFamily=Comic Sans MS;fontSize=10;" vertex="1" parent="1">
          <mxGeometry x="30" y="728" width="150" height="20" as="geometry" />
        </mxCell>
        <mxCell id="ZWByFL8Ro4nNfFt7e3Mq-117" value="" style="edgeStyle=orthogonalEdgeStyle;rounded=0;orthogonalLoop=1;jettySize=auto;html=1;" edge="1" parent="1" source="ZWByFL8Ro4nNfFt7e3Mq-114" target="ZWByFL8Ro4nNfFt7e3Mq-116">
          <mxGeometry relative="1" as="geometry" />
        </mxCell>
        <mxCell id="ZWByFL8Ro4nNfFt7e3Mq-114" value="" style="ellipse;whiteSpace=wrap;html=1;aspect=fixed;" vertex="1" parent="1">
          <mxGeometry x="-5" y="788" width="10" height="10" as="geometry" />
        </mxCell>
        <mxCell id="ZWByFL8Ro4nNfFt7e3Mq-120" value="" style="edgeStyle=orthogonalEdgeStyle;rounded=0;orthogonalLoop=1;jettySize=auto;html=1;endArrow=none;endFill=0;" edge="1" parent="1" source="ZWByFL8Ro4nNfFt7e3Mq-116" target="ZWByFL8Ro4nNfFt7e3Mq-119">
          <mxGeometry relative="1" as="geometry" />
        </mxCell>
        <mxCell id="ZWByFL8Ro4nNfFt7e3Mq-116" value="" style="ellipse;whiteSpace=wrap;html=1;aspect=fixed;" vertex="1" parent="1">
          <mxGeometry x="195" y="788" width="10" height="10" as="geometry" />
        </mxCell>
        <mxCell id="ZWByFL8Ro4nNfFt7e3Mq-118" value="response&amp;nbsp;selected_music name" style="rounded=0;whiteSpace=wrap;html=1;fillColor=#e1d5e7;strokeColor=#9673a6;fontFamily=Comic Sans MS;fontSize=10;" vertex="1" parent="1">
          <mxGeometry x="30" y="768" width="150" height="20" as="geometry" />
        </mxCell>
        <mxCell id="ZWByFL8Ro4nNfFt7e3Mq-125" value="" style="edgeStyle=orthogonalEdgeStyle;rounded=0;orthogonalLoop=1;jettySize=auto;html=1;" edge="1" parent="1" source="ZWByFL8Ro4nNfFt7e3Mq-119" target="ZWByFL8Ro4nNfFt7e3Mq-124">
          <mxGeometry relative="1" as="geometry" />
        </mxCell>
        <mxCell id="ZWByFL8Ro4nNfFt7e3Mq-119" value="" style="ellipse;whiteSpace=wrap;html=1;aspect=fixed;" vertex="1" parent="1">
          <mxGeometry x="195" y="828" width="10" height="10" as="geometry" />
        </mxCell>
        <mxCell id="ZWByFL8Ro4nNfFt7e3Mq-126" value="" style="endArrow=none;html=1;rounded=0;entryX=0.5;entryY=1;entryDx=0;entryDy=0;" edge="1" parent="1" target="ZWByFL8Ro4nNfFt7e3Mq-124">
          <mxGeometry width="50" height="50" relative="1" as="geometry">
            <mxPoint x="400" y="359" as="sourcePoint" />
            <mxPoint x="400" y="859" as="targetPoint" />
          </mxGeometry>
        </mxCell>
        <mxCell id="ZWByFL8Ro4nNfFt7e3Mq-127" value="upload json&lt;br&gt;{&quot;baby_id&quot;: device_id, &quot;selected_music&quot;: selected_music}" style="rounded=0;whiteSpace=wrap;html=1;fillColor=#e1d5e7;strokeColor=#9673a6;fontFamily=Comic Sans MS;fontSize=10;" vertex="1" parent="1">
          <mxGeometry x="220" y="763" width="160" height="60" as="geometry" />
        </mxCell>
        <mxCell id="ZWByFL8Ro4nNfFt7e3Mq-136" value="" style="endArrow=none;html=1;rounded=0;entryX=0.5;entryY=1;entryDx=0;entryDy=0;" edge="1" parent="1" source="ZWByFL8Ro4nNfFt7e3Mq-59" target="ZWByFL8Ro4nNfFt7e3Mq-137">
          <mxGeometry width="50" height="50" relative="1" as="geometry">
            <mxPoint y="668" as="sourcePoint" />
            <mxPoint y="518" as="targetPoint" />
          </mxGeometry>
        </mxCell>
        <mxCell id="ZWByFL8Ro4nNfFt7e3Mq-137" value="" style="ellipse;whiteSpace=wrap;html=1;aspect=fixed;" vertex="1" parent="1">
          <mxGeometry x="-5" y="588" width="10" height="10" as="geometry" />
        </mxCell>
        <mxCell id="ZWByFL8Ro4nNfFt7e3Mq-139" value="" style="endArrow=none;html=1;rounded=0;entryX=0.5;entryY=1;entryDx=0;entryDy=0;" edge="1" parent="1" source="ZWByFL8Ro4nNfFt7e3Mq-92" target="ZWByFL8Ro4nNfFt7e3Mq-59">
          <mxGeometry width="50" height="50" relative="1" as="geometry">
            <mxPoint y="668" as="sourcePoint" />
            <mxPoint y="598" as="targetPoint" />
          </mxGeometry>
        </mxCell>
        <mxCell id="ZWByFL8Ro4nNfFt7e3Mq-140" style="edgeStyle=orthogonalEdgeStyle;rounded=0;orthogonalLoop=1;jettySize=auto;html=1;entryX=1;entryY=0.5;entryDx=0;entryDy=0;" edge="1" parent="1" source="ZWByFL8Ro4nNfFt7e3Mq-59" target="ZWByFL8Ro4nNfFt7e3Mq-86">
          <mxGeometry relative="1" as="geometry" />
        </mxCell>
        <mxCell id="ZWByFL8Ro4nNfFt7e3Mq-59" value="" style="ellipse;whiteSpace=wrap;html=1;aspect=fixed;" vertex="1" parent="1">
          <mxGeometry x="-5" y="628" width="10" height="10" as="geometry" />
        </mxCell>
        <mxCell id="ZWByFL8Ro4nNfFt7e3Mq-143" value="" style="edgeStyle=orthogonalEdgeStyle;rounded=0;orthogonalLoop=1;jettySize=auto;html=1;endArrow=none;endFill=0;" edge="1" parent="1" source="ZWByFL8Ro4nNfFt7e3Mq-5" target="ZWByFL8Ro4nNfFt7e3Mq-141">
          <mxGeometry relative="1" as="geometry">
            <mxPoint x="600" y="180" as="sourcePoint" />
            <mxPoint x="600" y="800" as="targetPoint" />
          </mxGeometry>
        </mxCell>
        <mxCell id="ZWByFL8Ro4nNfFt7e3Mq-145" value="" style="edgeStyle=orthogonalEdgeStyle;rounded=0;orthogonalLoop=1;jettySize=auto;html=1;" edge="1" parent="1" source="ZWByFL8Ro4nNfFt7e3Mq-141" target="ZWByFL8Ro4nNfFt7e3Mq-144">
          <mxGeometry relative="1" as="geometry" />
        </mxCell>
        <mxCell id="ZWByFL8Ro4nNfFt7e3Mq-141" value="" style="ellipse;whiteSpace=wrap;html=1;rounded=1;" vertex="1" parent="1">
          <mxGeometry x="595" y="309" width="10" height="10" as="geometry" />
        </mxCell>
        <mxCell id="ZWByFL8Ro4nNfFt7e3Mq-146" value="" style="endArrow=none;html=1;rounded=0;entryX=0.5;entryY=1;entryDx=0;entryDy=0;" edge="1" parent="1" source="ZWByFL8Ro4nNfFt7e3Mq-174" target="ZWByFL8Ro4nNfFt7e3Mq-144">
          <mxGeometry width="50" height="50" relative="1" as="geometry">
            <mxPoint x="400" y="849" as="sourcePoint" />
            <mxPoint x="400" y="259" as="targetPoint" />
          </mxGeometry>
        </mxCell>
        <mxCell id="ZWByFL8Ro4nNfFt7e3Mq-144" value="" style="ellipse;whiteSpace=wrap;html=1;rounded=1;" vertex="1" parent="1">
          <mxGeometry x="395" y="309" width="10" height="10" as="geometry" />
        </mxCell>
        <mxCell id="ZWByFL8Ro4nNfFt7e3Mq-147" value="get data" style="rounded=0;whiteSpace=wrap;html=1;fillColor=#f8cecc;strokeColor=#b85450;fontFamily=Comic Sans MS;fontSize=10;" vertex="1" parent="1">
          <mxGeometry x="430" y="289" width="150" height="20" as="geometry" />
        </mxCell>
        <mxCell id="ZWByFL8Ro4nNfFt7e3Mq-149" value="" style="endArrow=none;html=1;rounded=0;entryX=0.5;entryY=1;entryDx=0;entryDy=0;" edge="1" parent="1" source="ZWByFL8Ro4nNfFt7e3Mq-162">
          <mxGeometry width="50" height="50" relative="1" as="geometry">
            <mxPoint x="400" y="888" as="sourcePoint" />
            <mxPoint x="400" y="859" as="targetPoint" />
          </mxGeometry>
        </mxCell>
        <mxCell id="ZWByFL8Ro4nNfFt7e3Mq-155" value="" style="edgeStyle=orthogonalEdgeStyle;rounded=0;orthogonalLoop=1;jettySize=auto;html=1;entryX=0.5;entryY=1;entryDx=0;entryDy=0;endArrow=none;endFill=0;" edge="1" parent="1" source="ZWByFL8Ro4nNfFt7e3Mq-182" target="ZWByFL8Ro4nNfFt7e3Mq-141">
          <mxGeometry relative="1" as="geometry">
            <mxPoint x="600" y="899" as="sourcePoint" />
            <Array as="points">
              <mxPoint x="600" y="329" />
            </Array>
          </mxGeometry>
        </mxCell>
        <mxCell id="ZWByFL8Ro4nNfFt7e3Mq-153" value="return data" style="rounded=0;whiteSpace=wrap;html=1;fillColor=#f8cecc;strokeColor=#b85450;fontFamily=Comic Sans MS;fontSize=10;" vertex="1" parent="1">
          <mxGeometry x="430" y="849" width="150" height="20" as="geometry" />
        </mxCell>
        <mxCell id="ZWByFL8Ro4nNfFt7e3Mq-162" value="" style="ellipse;whiteSpace=wrap;html=1;aspect=fixed;" vertex="1" parent="1">
          <mxGeometry x="395" y="708" width="10" height="10" as="geometry" />
        </mxCell>
        <mxCell id="ZWByFL8Ro4nNfFt7e3Mq-167" value="Upload None" style="rounded=0;whiteSpace=wrap;html=1;fillColor=#e1d5e7;strokeColor=#9673a6;fontFamily=Comic Sans MS;fontSize=10;" vertex="1" parent="1">
          <mxGeometry x="230" y="683" width="150" height="20" as="geometry" />
        </mxCell>
        <mxCell id="ZWByFL8Ro4nNfFt7e3Mq-169" value="" style="endArrow=none;html=1;rounded=0;entryX=0.5;entryY=1;entryDx=0;entryDy=0;" edge="1" parent="1" target="ZWByFL8Ro4nNfFt7e3Mq-53">
          <mxGeometry width="50" height="50" relative="1" as="geometry">
            <mxPoint x="400" y="849" as="sourcePoint" />
            <mxPoint x="400" y="319" as="targetPoint" />
          </mxGeometry>
        </mxCell>
        <mxCell id="ZWByFL8Ro4nNfFt7e3Mq-53" value="" style="ellipse;whiteSpace=wrap;html=1;aspect=fixed;" vertex="1" parent="1">
          <mxGeometry x="395" y="429" width="10" height="10" as="geometry" />
        </mxCell>
        <mxCell id="ZWByFL8Ro4nNfFt7e3Mq-171" value="Upload None" style="rounded=0;whiteSpace=wrap;html=1;fillColor=#e1d5e7;strokeColor=#9673a6;fontFamily=Comic Sans MS;fontSize=10;" vertex="1" parent="1">
          <mxGeometry x="230" y="399" width="150" height="20" as="geometry" />
        </mxCell>
        <mxCell id="ZWByFL8Ro4nNfFt7e3Mq-176" value="" style="endArrow=none;html=1;rounded=0;entryX=0.5;entryY=1;entryDx=0;entryDy=0;" edge="1" parent="1" source="ZWByFL8Ro4nNfFt7e3Mq-53" target="ZWByFL8Ro4nNfFt7e3Mq-174">
          <mxGeometry width="50" height="50" relative="1" as="geometry">
            <mxPoint x="400" y="429" as="sourcePoint" />
            <mxPoint x="400" y="319" as="targetPoint" />
          </mxGeometry>
        </mxCell>
        <mxCell id="ZWByFL8Ro4nNfFt7e3Mq-174" value="" style="ellipse;whiteSpace=wrap;html=1;aspect=fixed;" vertex="1" parent="1">
          <mxGeometry x="395" y="349" width="10" height="10" as="geometry" />
        </mxCell>
        <mxCell id="ZWByFL8Ro4nNfFt7e3Mq-178" value="Upload None" style="rounded=0;whiteSpace=wrap;html=1;fillColor=#e1d5e7;strokeColor=#9673a6;fontFamily=Comic Sans MS;fontSize=10;" vertex="1" parent="1">
          <mxGeometry x="230" y="319" width="150" height="20" as="geometry" />
        </mxCell>
        <mxCell id="ZWByFL8Ro4nNfFt7e3Mq-164" value="" style="endArrow=none;html=1;rounded=0;entryX=0.5;entryY=1;entryDx=0;entryDy=0;" edge="1" parent="1" source="ZWByFL8Ro4nNfFt7e3Mq-15" target="ZWByFL8Ro4nNfFt7e3Mq-162">
          <mxGeometry width="50" height="50" relative="1" as="geometry">
            <mxPoint x="400" y="888" as="sourcePoint" />
            <mxPoint x="400" y="438" as="targetPoint" />
          </mxGeometry>
        </mxCell>
        <mxCell id="ZWByFL8Ro4nNfFt7e3Mq-124" value="" style="ellipse;whiteSpace=wrap;html=1;aspect=fixed;" vertex="1" parent="1">
          <mxGeometry x="395" y="828" width="10" height="10" as="geometry" />
        </mxCell>
        <mxCell id="ZWByFL8Ro4nNfFt7e3Mq-187" value="" style="edgeStyle=orthogonalEdgeStyle;rounded=0;orthogonalLoop=1;jettySize=auto;html=1;endArrow=none;endFill=0;" edge="1" parent="1" source="ZWByFL8Ro4nNfFt7e3Mq-182" target="ZWByFL8Ro4nNfFt7e3Mq-186">
          <mxGeometry relative="1" as="geometry" />
        </mxCell>
        <mxCell id="ZWByFL8Ro4nNfFt7e3Mq-182" value="" style="ellipse;whiteSpace=wrap;html=1;aspect=fixed;" vertex="1" parent="1">
          <mxGeometry x="595" y="869" width="10" height="10" as="geometry" />
        </mxCell>
        <mxCell id="ZWByFL8Ro4nNfFt7e3Mq-191" value="" style="edgeStyle=orthogonalEdgeStyle;rounded=0;orthogonalLoop=1;jettySize=auto;html=1;" edge="1" parent="1" source="ZWByFL8Ro4nNfFt7e3Mq-186" target="ZWByFL8Ro4nNfFt7e3Mq-190">
          <mxGeometry relative="1" as="geometry" />
        </mxCell>
        <mxCell id="ZWByFL8Ro4nNfFt7e3Mq-193" value="&amp;nbsp;data != None&amp;nbsp;" style="edgeLabel;html=1;align=center;verticalAlign=middle;resizable=0;points=[];" vertex="1" connectable="0" parent="ZWByFL8Ro4nNfFt7e3Mq-191">
          <mxGeometry x="-0.1351" y="-1" relative="1" as="geometry">
            <mxPoint as="offset" />
          </mxGeometry>
        </mxCell>
        <mxCell id="ZWByFL8Ro4nNfFt7e3Mq-195" value="" style="edgeStyle=orthogonalEdgeStyle;rounded=0;orthogonalLoop=1;jettySize=auto;html=1;" edge="1" parent="1" source="ZWByFL8Ro4nNfFt7e3Mq-186" target="ZWByFL8Ro4nNfFt7e3Mq-194">
          <mxGeometry relative="1" as="geometry" />
        </mxCell>
        <mxCell id="ZWByFL8Ro4nNfFt7e3Mq-196" value="&amp;nbsp;data == None&amp;nbsp;" style="edgeLabel;html=1;align=center;verticalAlign=middle;resizable=0;points=[];" vertex="1" connectable="0" parent="ZWByFL8Ro4nNfFt7e3Mq-195">
          <mxGeometry x="-0.5467" relative="1" as="geometry">
            <mxPoint as="offset" />
          </mxGeometry>
        </mxCell>
        <mxCell id="ZWByFL8Ro4nNfFt7e3Mq-186" value="" style="ellipse;whiteSpace=wrap;html=1;aspect=fixed;" vertex="1" parent="1">
          <mxGeometry x="595" y="909" width="10" height="10" as="geometry" />
        </mxCell>
        <mxCell id="ZWByFL8Ro4nNfFt7e3Mq-192" value="" style="edgeStyle=orthogonalEdgeStyle;rounded=0;orthogonalLoop=1;jettySize=auto;html=1;endArrow=none;endFill=0;" edge="1" parent="1" source="ZWByFL8Ro4nNfFt7e3Mq-7" target="ZWByFL8Ro4nNfFt7e3Mq-190">
          <mxGeometry relative="1" as="geometry">
            <mxPoint x="800" y="851.6666666666666" as="targetPoint" />
            <mxPoint x="800" y="180" as="sourcePoint" />
          </mxGeometry>
        </mxCell>
        <mxCell id="ZWByFL8Ro4nNfFt7e3Mq-190" value="" style="ellipse;whiteSpace=wrap;html=1;aspect=fixed;" vertex="1" parent="1">
          <mxGeometry x="795" y="909" width="10" height="10" as="geometry" />
        </mxCell>
        <mxCell id="ZWByFL8Ro4nNfFt7e3Mq-194" value="" style="ellipse;whiteSpace=wrap;html=1;aspect=fixed;" vertex="1" parent="1">
          <mxGeometry x="595" y="949" width="10" height="10" as="geometry" />
        </mxCell>
        <mxCell id="ZWByFL8Ro4nNfFt7e3Mq-197" value="Send line message" style="rounded=0;whiteSpace=wrap;html=1;fillColor=#e1d5e7;strokeColor=#9673a6;fontFamily=Comic Sans MS;fontSize=10;" vertex="1" parent="1">
          <mxGeometry x="630" y="879" width="150" height="20" as="geometry" />
        </mxCell>
        <mxCell id="ZWByFL8Ro4nNfFt7e3Mq-200" value="" style="endArrow=none;html=1;rounded=0;entryX=0.5;entryY=1;entryDx=0;entryDy=0;" edge="1" parent="1" source="ZWByFL8Ro4nNfFt7e3Mq-219" target="ZWByFL8Ro4nNfFt7e3Mq-28">
          <mxGeometry width="50" height="50" relative="1" as="geometry">
            <mxPoint x="-200" y="1001" as="sourcePoint" />
            <mxPoint x="-200.42" y="200" as="targetPoint" />
          </mxGeometry>
        </mxCell>
        <mxCell id="ZWByFL8Ro4nNfFt7e3Mq-211" value="&amp;nbsp;every 30 seconds&amp;nbsp;" style="edgeLabel;html=1;align=center;verticalAlign=middle;resizable=0;points=[];" vertex="1" connectable="0" parent="ZWByFL8Ro4nNfFt7e3Mq-200">
          <mxGeometry x="0.1667" relative="1" as="geometry">
            <mxPoint x="5" y="86" as="offset" />
          </mxGeometry>
        </mxCell>
        <mxCell id="ZWByFL8Ro4nNfFt7e3Mq-202" value="" style="edgeStyle=orthogonalEdgeStyle;rounded=0;orthogonalLoop=1;jettySize=auto;html=1;" edge="1" parent="1" source="ZWByFL8Ro4nNfFt7e3Mq-28" target="ZWByFL8Ro4nNfFt7e3Mq-201">
          <mxGeometry relative="1" as="geometry" />
        </mxCell>
        <mxCell id="ZWByFL8Ro4nNfFt7e3Mq-205" value="&amp;nbsp;start&amp;nbsp;" style="edgeLabel;html=1;align=center;verticalAlign=middle;resizable=0;points=[];" vertex="1" connectable="0" parent="ZWByFL8Ro4nNfFt7e3Mq-202">
          <mxGeometry x="-0.0421" y="2" relative="1" as="geometry">
            <mxPoint as="offset" />
          </mxGeometry>
        </mxCell>
        <mxCell id="ZWByFL8Ro4nNfFt7e3Mq-28" value="" style="ellipse;whiteSpace=wrap;html=1;aspect=fixed;" vertex="1" parent="1">
          <mxGeometry x="-205" y="270" width="10" height="10" as="geometry" />
        </mxCell>
        <mxCell id="ZWByFL8Ro4nNfFt7e3Mq-203" value="" style="endArrow=none;html=1;rounded=0;entryX=0.5;entryY=1;entryDx=0;entryDy=0;" edge="1" parent="1" source="ZWByFL8Ro4nNfFt7e3Mq-31" target="ZWByFL8Ro4nNfFt7e3Mq-201">
          <mxGeometry width="50" height="50" relative="1" as="geometry">
            <mxPoint y="309" as="sourcePoint" />
            <mxPoint y="180" as="targetPoint" />
          </mxGeometry>
        </mxCell>
        <mxCell id="ZWByFL8Ro4nNfFt7e3Mq-201" value="" style="ellipse;whiteSpace=wrap;html=1;aspect=fixed;" vertex="1" parent="1">
          <mxGeometry x="-5" y="270" width="10" height="10" as="geometry" />
        </mxCell>
        <mxCell id="ZWByFL8Ro4nNfFt7e3Mq-208" value="" style="edgeStyle=orthogonalEdgeStyle;rounded=0;orthogonalLoop=1;jettySize=auto;html=1;" edge="1" parent="1" source="ZWByFL8Ro4nNfFt7e3Mq-206" target="ZWByFL8Ro4nNfFt7e3Mq-207">
          <mxGeometry relative="1" as="geometry" />
        </mxCell>
        <mxCell id="ZWByFL8Ro4nNfFt7e3Mq-206" value="" style="ellipse;whiteSpace=wrap;html=1;aspect=fixed;" vertex="1" parent="1">
          <mxGeometry x="-205" y="470" width="10" height="10" as="geometry" />
        </mxCell>
        <mxCell id="ZWByFL8Ro4nNfFt7e3Mq-209" value="" style="endArrow=none;html=1;rounded=0;entryX=0.5;entryY=1;entryDx=0;entryDy=0;" edge="1" parent="1" source="ZWByFL8Ro4nNfFt7e3Mq-61" target="ZWByFL8Ro4nNfFt7e3Mq-207">
          <mxGeometry width="50" height="50" relative="1" as="geometry">
            <mxPoint y="509" as="sourcePoint" />
            <mxPoint y="359" as="targetPoint" />
          </mxGeometry>
        </mxCell>
        <mxCell id="ZWByFL8Ro4nNfFt7e3Mq-207" value="" style="ellipse;whiteSpace=wrap;html=1;aspect=fixed;" vertex="1" parent="1">
          <mxGeometry x="-5" y="470" width="10" height="10" as="geometry" />
        </mxCell>
        <mxCell id="ZWByFL8Ro4nNfFt7e3Mq-210" value="post /upload" style="rounded=0;whiteSpace=wrap;html=1;fillColor=#e1d5e7;strokeColor=#9673a6;fontFamily=Comic Sans MS;fontSize=10;" vertex="1" parent="1">
          <mxGeometry x="-180" y="439" width="150" height="20" as="geometry" />
        </mxCell>
        <mxCell id="ZWByFL8Ro4nNfFt7e3Mq-212" value="post&amp;nbsp;/change_record_status" style="rounded=0;whiteSpace=wrap;html=1;fillColor=#e1d5e7;strokeColor=#9673a6;fontFamily=Comic Sans MS;fontSize=10;" vertex="1" parent="1">
          <mxGeometry x="-180" y="246" width="150" height="20" as="geometry" />
        </mxCell>
        <mxCell id="ZWByFL8Ro4nNfFt7e3Mq-230" value="" style="edgeStyle=orthogonalEdgeStyle;rounded=0;orthogonalLoop=1;jettySize=auto;html=1;" edge="1" parent="1" source="ZWByFL8Ro4nNfFt7e3Mq-219" target="ZWByFL8Ro4nNfFt7e3Mq-229">
          <mxGeometry relative="1" as="geometry" />
        </mxCell>
        <mxCell id="ZWByFL8Ro4nNfFt7e3Mq-233" value="&amp;nbsp;stop&amp;nbsp;" style="edgeLabel;html=1;align=center;verticalAlign=middle;resizable=0;points=[];" vertex="1" connectable="0" parent="ZWByFL8Ro4nNfFt7e3Mq-230">
          <mxGeometry x="-0.0421" y="1" relative="1" as="geometry">
            <mxPoint as="offset" />
          </mxGeometry>
        </mxCell>
        <mxCell id="ZWByFL8Ro4nNfFt7e3Mq-219" value="" style="ellipse;whiteSpace=wrap;html=1;aspect=fixed;" vertex="1" parent="1">
          <mxGeometry x="-205" y="230" width="10" height="10" as="geometry" />
        </mxCell>
        <mxCell id="ZWByFL8Ro4nNfFt7e3Mq-229" value="" style="ellipse;whiteSpace=wrap;html=1;aspect=fixed;" vertex="1" parent="1">
          <mxGeometry x="-5" y="230" width="10" height="10" as="geometry" />
        </mxCell>
        <mxCell id="ZWByFL8Ro4nNfFt7e3Mq-232" value="post&amp;nbsp;/change_record_status" style="rounded=0;whiteSpace=wrap;html=1;fillColor=#e1d5e7;strokeColor=#9673a6;fontFamily=Comic Sans MS;fontSize=10;" vertex="1" parent="1">
          <mxGeometry x="-180" y="200" width="150" height="20" as="geometry" />
        </mxCell>
        <mxCell id="ZWByFL8Ro4nNfFt7e3Mq-239" style="edgeStyle=orthogonalEdgeStyle;rounded=0;orthogonalLoop=1;jettySize=auto;html=1;entryX=0.5;entryY=0;entryDx=0;entryDy=0;endArrow=none;endFill=0;" edge="1" parent="1">
          <mxGeometry relative="1" as="geometry">
            <mxPoint x="-400.5" y="598" as="sourcePoint" />
            <mxPoint x="-400.5" y="628" as="targetPoint" />
          </mxGeometry>
        </mxCell>
        <mxCell id="ZWByFL8Ro4nNfFt7e3Mq-240" style="edgeStyle=orthogonalEdgeStyle;rounded=0;orthogonalLoop=1;jettySize=auto;html=1;entryX=0.5;entryY=0;entryDx=0;entryDy=0;endArrow=none;endFill=0;" edge="1" parent="1">
          <mxGeometry relative="1" as="geometry">
            <mxPoint x="-400.5" y="638" as="sourcePoint" />
            <mxPoint x="-400.5" y="668" as="targetPoint" />
          </mxGeometry>
        </mxCell>
      </root>
    </mxGraphModel>
  </diagram>
</mxfile>
